<?xml version="1.0" encoding="UTF-8"?>
<!DOCTYPE svg PUBLIC "-//W3C//DTD SVG 1.1//EN" "http://www.w3.org/Graphics/SVG/1.1/DTD/svg11.dtd">
<svg xmlns="http://www.w3.org/2000/svg" version="1.1" width="139px" height="222px" style="shape-rendering:geometricPrecision; text-rendering:geometricPrecision; image-rendering:optimizeQuality; fill-rule:evenodd; clip-rule:evenodd" xmlns:xlink="http://www.w3.org/1999/xlink">
<g><path style="opacity:0.981" fill="#c6851a" d="M 87.5,-0.5 C 90.8333,-0.5 94.1667,-0.5 97.5,-0.5C 99.8205,0.418466 101.987,1.7518 104,3.5C 106.698,8.48662 108.198,13.82 108.5,19.5C 106.295,35.359 103.128,51.0257 99,66.5C 91.8848,83.5351 80.2181,87.8684 64,79.5C 63.7221,75.8061 63.7221,72.1394 64,68.5C 58.3758,73.6556 52.5425,73.8222 46.5,69C 44.9095,67.9542 43.4095,66.7875 42,65.5C 42.3844,71.1395 42.3844,76.8062 42,82.5C 27.2781,89.3191 16.9448,84.9857 11,69.5C 6.59973,54.1024 4.2664,38.4357 4,22.5C 4.91067,14.421 9.41067,10.421 17.5,10.5C 28.3075,12.9354 39.1408,15.2687 50,17.5C 53.3668,16.867 56.5334,15.7003 59.5,14C 67.9318,7.28508 77.2651,2.45175 87.5,-0.5 Z"/></g>
<g><path style="opacity:0.985" fill="#c6851a" d="M 79.5,221.5 C 58.5,221.5 37.5,221.5 16.5,221.5C 7.89404,220.368 2.22737,215.702 -0.5,207.5C -0.5,179.5 -0.5,151.5 -0.5,123.5C 1.12523,117.235 3.62523,111.235 7,105.5C 11.2759,100.228 16.7759,97.0609 23.5,96C 41.5,95.3333 59.5,95.3333 77.5,96C 95.3033,99.1411 107.803,108.974 115,125.5C 122.379,144.246 124.712,163.579 122,183.5C 118.337,200.171 108.504,211.671 92.5,218C 88.0809,219.352 83.7476,220.519 79.5,221.5 Z M 56.5,142.5 C 73.23,141.717 80.0634,149.383 77,165.5C 73.2076,171.482 67.7076,174.482 60.5,174.5C 56.8621,173.818 53.1954,173.318 49.5,173C 48.4216,172.326 47.7549,171.326 47.5,170C 45.9319,161.4 46.2652,152.9 48.5,144.5C 51.3106,143.92 53.9773,143.254 56.5,142.5 Z"/></g>
</svg>
