<?xml version="1.0" encoding="UTF-8"?>
<!DOCTYPE svg PUBLIC "-//W3C//DTD SVG 1.1//EN" "http://www.w3.org/Graphics/SVG/1.1/DTD/svg11.dtd">
<svg xmlns="http://www.w3.org/2000/svg" version="1.1" width="300px" height="316px" style="shape-rendering:geometricPrecision; text-rendering:geometricPrecision; image-rendering:optimizeQuality; fill-rule:evenodd; clip-rule:evenodd" xmlns:xlink="http://www.w3.org/1999/xlink">
<g><path style="opacity:0.231" fill="#350e0d" d="M 207.5,2.5 C 207.573,4.02694 206.906,5.02694 205.5,5.5C 205.427,3.97306 206.094,2.97306 207.5,2.5 Z"/></g>
<g><path style="opacity:0.998" fill="#9f2024" d="M 209.5,-0.5 C 210.167,-0.5 210.833,-0.5 211.5,-0.5C 208.509,51.5286 205.675,103.529 203,155.5C 204.045,154.627 204.878,153.627 205.5,152.5C 206.906,152.027 207.573,151.027 207.5,149.5C 211.167,143.833 214.833,138.167 218.5,132.5C 220.531,131.461 221.864,129.795 222.5,127.5C 222.328,126.508 222.662,125.842 223.5,125.5C 224.906,125.027 225.573,124.027 225.5,122.5C 226.769,118.946 228.769,115.946 231.5,113.5C 232.906,113.027 233.573,112.027 233.5,110.5C 234.026,108.77 235.026,107.436 236.5,106.5C 237.933,105.167 239.267,103.667 240.5,102C 240.272,101.601 239.938,101.435 239.5,101.5C 239.932,100.29 240.599,99.2905 241.5,98.5C 244.044,97.2921 245.378,95.2921 245.5,92.5C 245.5,91.8333 245.833,91.5 246.5,91.5C 263.833,92.1667 281.167,92.8333 298.5,93.5C 289.299,109.034 279.299,124.034 268.5,138.5C 267.326,139.514 266.66,140.847 266.5,142.5C 261.559,150.772 256.226,158.772 250.5,166.5C 249.094,166.973 248.427,167.973 248.5,169.5C 247.737,171.368 246.737,173.035 245.5,174.5C 243.952,174.821 243.285,175.821 243.5,177.5C 242.833,178.5 242.167,179.5 241.5,180.5C 240.094,180.973 239.427,181.973 239.5,183.5C 233.723,192.742 227.723,201.742 221.5,210.5C 199.5,210.5 177.5,210.5 155.5,210.5C 155.5,209.167 155.5,207.833 155.5,206.5C 155.181,189.09 155.515,171.756 156.5,154.5C 157.654,148.013 157.821,141.346 157,134.5C 156.283,135.044 155.783,135.711 155.5,136.5C 151.5,142.167 147.5,147.833 143.5,153.5C 142.167,153.5 141.5,154.167 141.5,155.5C 137.853,161.14 133.853,166.473 129.5,171.5C 128.094,171.973 127.427,172.973 127.5,174.5C 116.544,190.121 105.211,205.454 93.5,220.5C 92.5,220.833 91.8333,221.5 91.5,222.5C 89.9379,226.392 87.6046,229.725 84.5,232.5C 82.8333,232.5 81.1667,232.5 79.5,232.5C 76.7603,231.078 74.427,229.078 72.5,226.5C 72.1667,225.5 71.5,224.833 70.5,224.5C 62.8544,218.854 56.1878,212.188 50.5,204.5C 50.1667,203.5 49.5,202.833 48.5,202.5C 47.8333,201.5 47.1667,200.5 46.5,199.5C 45.8645,197.205 44.5311,195.539 42.5,194.5C 39.9427,191.889 38.2761,188.722 37.5,185C 38.7306,177.717 39.7306,170.551 40.5,163.5C 41.8955,159.409 42.5621,155.076 42.5,150.5C 42.8451,141.285 43.8451,132.285 45.5,123.5C 46.8955,119.409 47.5621,115.076 47.5,110.5C 48.1095,104.185 48.4428,97.8513 48.5,91.5C 66.5,91.5 84.5,91.5 102.5,91.5C 100.328,111.892 97.6615,132.225 94.5,152.5C 94.6667,153.167 94.8333,153.833 95,154.5C 96.4048,153.269 97.5714,151.936 98.5,150.5C 100.997,149.871 102.33,148.204 102.5,145.5C 104.262,144.738 105.262,143.404 105.5,141.5C 109.446,134.595 114.113,128.262 119.5,122.5C 120.906,122.027 121.573,121.027 121.5,119.5C 123.482,116.19 125.815,113.19 128.5,110.5C 130.063,109.055 131.396,107.389 132.5,105.5C 133.383,102.296 135.05,99.6291 137.5,97.5C 139.929,96.7352 141.262,95.0685 141.5,92.5C 144.445,87.5549 147.779,82.8883 151.5,78.5C 153.531,77.4613 154.864,75.7946 155.5,73.5C 156.906,73.0269 157.573,72.0269 157.5,70.5C 158.512,69.1283 159.512,67.795 160.5,66.5C 162.446,65.9653 163.446,64.632 163.5,62.5C 165.147,59.5265 167.147,56.8599 169.5,54.5C 170.906,54.0269 171.573,53.0269 171.5,51.5C 172.604,49.6115 173.937,47.9448 175.5,46.5C 176.906,46.0269 177.573,45.0269 177.5,43.5C 177.5,42.8333 177.833,42.5 178.5,42.5C 179.906,42.0269 180.573,41.0269 180.5,39.5C 182.833,36.1667 185.167,32.8333 187.5,29.5C 189.264,28.674 190.598,27.3407 191.5,25.5C 191.5,25.1667 191.5,24.8333 191.5,24.5C 192.906,24.0269 193.573,23.0269 193.5,21.5C 194.512,20.1283 195.512,18.795 196.5,17.5C 198.929,16.7352 200.262,15.0685 200.5,12.5C 201.786,9.88297 203.453,7.54964 205.5,5.5C 206.906,5.02694 207.573,4.02694 207.5,2.5C 208.167,1.5 208.833,0.5 209.5,-0.5 Z"/></g>
<g><path style="opacity:0.529" fill="#631819" d="M 200.5,12.5 C 200.262,15.0685 198.929,16.7352 196.5,17.5C 197.124,15.246 198.457,13.5794 200.5,12.5 Z"/></g>
<g><path style="opacity:0.224" fill="#401a19" d="M 193.5,21.5 C 193.573,23.0269 192.906,24.0269 191.5,24.5C 191.427,22.9731 192.094,21.9731 193.5,21.5 Z"/></g>
<g><path style="opacity:0.102" fill="#401211" d="M 191.5,25.5 C 190.598,27.3407 189.264,28.674 187.5,29.5C 187.957,27.2273 189.29,25.894 191.5,25.5 Z"/></g>
<g><path style="opacity:0.993" fill="#992024" d="M 127.5,39.5 C 132.936,41.3245 138.603,42.6578 144.5,43.5C 145.5,43.5 146.5,43.5 147.5,43.5C 149.102,45.0739 151.102,45.7406 153.5,45.5C 155.553,45.4021 157.22,46.0687 158.5,47.5C 158.158,48.3382 157.492,48.6716 156.5,48.5C 150.916,48.7451 145.583,48.0784 140.5,46.5C 132.54,44.645 124.54,44.3117 116.5,45.5C 110.57,45.1282 104.903,45.7949 99.5,47.5C 90.4664,49.1682 81.4664,51.5016 72.5,54.5C 70.6203,54.2291 69.287,54.8958 68.5,56.5C 50.4992,64.4892 36.4992,77.1558 26.5,94.5C 24.9519,94.8212 24.2852,95.8212 24.5,97.5C 17.2155,115.285 15.5489,133.619 19.5,152.5C 19.2594,154.898 19.9261,156.898 21.5,158.5C 22.49,161.739 23.49,165.072 24.5,168.5C 24.427,170.027 25.0937,171.027 26.5,171.5C 30.8252,181.493 36.1585,190.826 42.5,199.5C 42.427,201.027 43.0937,202.027 44.5,202.5C 54.5101,214.843 65.8434,225.843 78.5,235.5C 78.9731,236.906 79.9731,237.573 81.5,237.5C 87.2732,241.536 93.2732,245.202 99.5,248.5C 99.9731,249.906 100.973,250.573 102.5,250.5C 104.339,253.135 107.006,254.468 110.5,254.5C 112.954,255.227 115.287,256.227 117.5,257.5C 118.514,258.674 119.847,259.34 121.5,259.5C 134.766,264.4 148.432,267.9 162.5,270C 176.855,270.745 191.188,270.578 205.5,269.5C 208.495,269.706 211.162,269.04 213.5,267.5C 220.982,265.434 228.315,262.767 235.5,259.5C 237.027,259.573 238.027,258.906 238.5,257.5C 245.443,253.223 252.11,248.556 258.5,243.5C 259.906,243.027 260.573,242.027 260.5,240.5C 268.88,230.736 274.88,219.736 278.5,207.5C 280.04,205.162 280.706,202.495 280.5,199.5C 282.161,186.048 281.494,172.715 278.5,159.5C 278.687,157.436 279.187,155.436 280,153.5C 280.278,154.416 280.778,155.082 281.5,155.5C 294.218,187.303 291.385,217.636 273,246.5C 264.755,257.591 254.588,266.258 242.5,272.5C 240.973,272.427 239.973,273.094 239.5,274.5C 237.351,275.736 235.018,276.736 232.5,277.5C 230.847,277.66 229.514,278.326 228.5,279.5C 225.67,280.735 222.67,281.735 219.5,282.5C 217.214,282.595 215.214,283.262 213.5,284.5C 187.865,291.07 162.198,291.07 136.5,284.5C 135.01,282.72 133.01,282.054 130.5,282.5C 122.9,280.966 115.566,278.633 108.5,275.5C 107.713,273.896 106.38,273.229 104.5,273.5C 96.9559,270.395 89.6226,266.728 82.5,262.5C 82.0269,261.094 81.0269,260.427 79.5,260.5C 72.9175,256.909 66.9175,252.576 61.5,247.5C 61.0269,246.094 60.0269,245.427 58.5,245.5C 57.5,245.167 56.8333,244.5 56.5,243.5C 56.0269,242.094 55.0269,241.427 53.5,241.5C 44.032,233.575 35.6987,224.575 28.5,214.5C 28.573,212.973 27.9063,211.973 26.5,211.5C 16.6285,199.426 9.62848,185.759 5.5,170.5C 5.59794,168.447 4.93127,166.78 3.5,165.5C 3.5,164.5 3.5,163.5 3.5,162.5C 3.10152,157.588 2.10152,152.921 0.5,148.5C 0.166667,148.5 -0.166667,148.5 -0.5,148.5C -0.5,139.167 -0.5,129.833 -0.5,120.5C 6.2818,84.1298 26.9485,59.4631 61.5,46.5C 63.5529,46.5979 65.2196,45.9313 66.5,44.5C 69.9365,43.0552 73.6032,42.0552 77.5,41.5C 80.7814,41.5797 83.7814,40.913 86.5,39.5C 100.167,38.1667 113.833,38.1667 127.5,39.5 Z"/></g>
<g><path style="opacity:0.184" fill="#330d0f" d="M 86.5,39.5 C 83.7814,40.913 80.7814,41.5797 77.5,41.5C 80.2186,40.087 83.2186,39.4203 86.5,39.5 Z"/></g>
<g><path style="opacity:0.353" fill="#471212" d="M 180.5,39.5 C 180.573,41.0269 179.906,42.0269 178.5,42.5C 178.427,40.9731 179.094,39.9731 180.5,39.5 Z"/></g>
<g><path style="opacity:0.463" fill="#551718" d="M 127.5,39.5 C 133.516,39.8327 139.183,41.166 144.5,43.5C 138.603,42.6578 132.936,41.3245 127.5,39.5 Z"/></g>
<g><path style="opacity:0.133" fill="#280b0a" d="M 147.5,43.5 C 149.786,43.595 151.786,44.2616 153.5,45.5C 151.102,45.7406 149.102,45.0739 147.5,43.5 Z"/></g>
<g><path style="opacity:0.306" fill="#4a1717" d="M 177.5,43.5 C 177.573,45.0269 176.906,46.0269 175.5,46.5C 175.427,44.9731 176.094,43.9731 177.5,43.5 Z"/></g>
<g><path style="opacity:0.235" fill="#410f10" d="M 66.5,44.5 C 65.2196,45.9313 63.5529,46.5979 61.5,46.5C 62.7804,45.0687 64.4471,44.4021 66.5,44.5 Z"/></g>
<g><path style="opacity:0.069" fill="#57191a" d="M 116.5,45.5 C 111.016,46.5175 105.349,47.1842 99.5,47.5C 104.903,45.7949 110.57,45.1282 116.5,45.5 Z"/></g>
<g><path style="opacity:0.357" fill="#641618" d="M 116.5,45.5 C 124.54,44.3117 132.54,44.645 140.5,46.5C 132.505,46.0645 124.505,45.7312 116.5,45.5 Z"/></g>
<g><path style="opacity:0.451" fill="#6f1d1d" d="M 158.5,47.5 C 160.696,47.5652 162.696,48.2319 164.5,49.5C 161.646,50.4503 158.98,50.117 156.5,48.5C 157.492,48.6716 158.158,48.3382 158.5,47.5 Z"/></g>
<g><path style="opacity:0.247" fill="#310d0d" d="M 171.5,51.5 C 171.573,53.0269 170.906,54.0269 169.5,54.5C 169.427,52.9731 170.094,51.9731 171.5,51.5 Z"/></g>
<g><path style="opacity:0.016" fill="#320f0d" d="M 72.5,54.5 C 71.4863,55.6737 70.153,56.3404 68.5,56.5C 69.287,54.8958 70.6203,54.2291 72.5,54.5 Z"/></g>
<g><path style="opacity:0.157" fill="#451213" d="M 163.5,62.5 C 163.446,64.632 162.446,65.9653 160.5,66.5C 161.026,64.7697 162.026,63.4363 163.5,62.5 Z"/></g>
<g><path style="opacity:0.239" fill="#380f0e" d="M 157.5,70.5 C 157.573,72.0269 156.906,73.0269 155.5,73.5C 155.427,71.9731 156.094,70.9731 157.5,70.5 Z"/></g>
<g><path style="opacity:0.333" fill="#4a1717" d="M 155.5,73.5 C 154.864,75.7946 153.531,77.4613 151.5,78.5C 152.124,76.246 153.457,74.5794 155.5,73.5 Z"/></g>
<g><path style="opacity:0.678" fill="#74181b" d="M 246.5,91.5 C 264.167,91.5 281.833,91.5 299.5,91.5C 299.5,92.1667 299.5,92.8333 299.5,93.5C 299.167,93.5 298.833,93.5 298.5,93.5C 281.167,92.8333 263.833,92.1667 246.5,91.5 Z"/></g>
<g><path style="opacity:0.718" fill="#773333" d="M 245.5,92.5 C 245.378,95.2921 244.044,97.2921 241.5,98.5C 242.449,96.2228 243.782,94.2228 245.5,92.5 Z"/></g>
<g><path style="opacity:0.176" fill="#63393a" d="M 26.5,94.5 C 26.0679,95.7095 25.4013,96.7095 24.5,97.5C 24.2852,95.8212 24.9519,94.8212 26.5,94.5 Z"/></g>
<g><path style="opacity:0.431" fill="#571817" d="M 141.5,92.5 C 141.262,95.0685 139.929,96.7352 137.5,97.5C 138.124,95.246 139.457,93.5794 141.5,92.5 Z"/></g>
<g><path style="opacity:0.302" fill="#713231" d="M 239.5,101.5 C 239.938,101.435 240.272,101.601 240.5,102C 239.267,103.667 237.933,105.167 236.5,106.5C 236.75,104.326 237.75,102.659 239.5,101.5 Z"/></g>
<g><path style="opacity:0.059" fill="#33100e" d="M 132.5,105.5 C 131.396,107.389 130.063,109.055 128.5,110.5C 128.67,107.796 130.003,106.129 132.5,105.5 Z"/></g>
<g><path style="opacity:0.271" fill="#350e0d" d="M 233.5,110.5 C 233.573,112.027 232.906,113.027 231.5,113.5C 231.427,111.973 232.094,110.973 233.5,110.5 Z"/></g>
<g><path style="opacity:0.228" fill="#4b1013" d="M 47.5,110.5 C 47.5621,115.076 46.8955,119.409 45.5,123.5C 45.4379,118.924 46.1045,114.591 47.5,110.5 Z"/></g>
<g><path style="opacity:0.259" fill="#340e0e" d="M 121.5,119.5 C 121.573,121.027 120.906,122.027 119.5,122.5C 119.427,120.973 120.094,119.973 121.5,119.5 Z"/></g>
<g><path style="opacity:0.271" fill="#330e0c" d="M 225.5,122.5 C 225.573,124.027 224.906,125.027 223.5,125.5C 223.427,123.973 224.094,122.973 225.5,122.5 Z"/></g>
<g><path style="opacity:0.502" fill="#4d1415" d="M 222.5,127.5 C 221.864,129.795 220.531,131.461 218.5,132.5C 219.124,130.246 220.457,128.579 222.5,127.5 Z"/></g>
<g><path style="opacity:0.146" fill="#250808" d="M 156.5,154.5 C 156.823,148.31 156.49,142.31 155.5,136.5C 155.783,135.711 156.283,135.044 157,134.5C 157.821,141.346 157.654,148.013 156.5,154.5 Z"/></g>
<g><path style="opacity:0.012" fill="#4e3736" d="M 268.5,138.5 C 268.771,140.38 268.104,141.713 266.5,142.5C 266.66,140.847 267.326,139.514 268.5,138.5 Z"/></g>
<g><path style="opacity:0.384" fill="#4b1918" d="M 105.5,141.5 C 105.262,143.404 104.262,144.738 102.5,145.5C 102.738,143.596 103.738,142.262 105.5,141.5 Z"/></g>
<g><path style="opacity:0.62" fill="#601818" d="M 102.5,145.5 C 102.33,148.204 100.997,149.871 98.5,150.5C 99.604,148.611 100.937,146.945 102.5,145.5 Z"/></g>
<g><path style="opacity:0.267" fill="#370f0e" d="M 207.5,149.5 C 207.573,151.027 206.906,152.027 205.5,152.5C 205.427,150.973 206.094,149.973 207.5,149.5 Z"/></g>
<g><path style="opacity:0.962" fill="#731b1d" d="M 281.5,155.5 C 280.778,155.082 280.278,154.416 280,153.5C 279.187,155.436 278.687,157.436 278.5,159.5C 277.193,154.11 275.36,148.777 273,143.5C 272.333,141.5 272.333,139.5 273,137.5C 276.67,143.17 279.503,149.17 281.5,155.5 Z"/></g>
<g><path style="opacity:0.202" fill="#411516" d="M 19.5,152.5 C 20.7384,154.214 21.405,156.214 21.5,158.5C 19.9261,156.898 19.2594,154.898 19.5,152.5 Z"/></g>
<g><path style="opacity:0.26" fill="#521215" d="M 0.5,148.5 C 2.10152,152.921 3.10152,157.588 3.5,162.5C 1.58117,158.143 0.58117,153.477 0.5,148.5 Z"/></g>
<g><path style="opacity:0.027" fill="#270d0a" d="M 143.5,153.5 C 143.167,154.5 142.5,155.167 141.5,155.5C 141.5,154.167 142.167,153.5 143.5,153.5 Z"/></g>
<g><path style="opacity:0.187" fill="#3b0d0f" d="M 42.5,150.5 C 42.5621,155.076 41.8955,159.409 40.5,163.5C 40.4379,158.924 41.1045,154.591 42.5,150.5 Z"/></g>
<g><path style="opacity:0.125" fill="#250a08" d="M 3.5,165.5 C 4.93127,166.78 5.59794,168.447 5.5,170.5C 4.06873,169.22 3.40206,167.553 3.5,165.5 Z"/></g>
<g><path style="opacity:0.031" fill="#2f0c0b" d="M 250.5,166.5 C 250.573,168.027 249.906,169.027 248.5,169.5C 248.427,167.973 249.094,166.973 250.5,166.5 Z"/></g>
<g><path style="opacity:0.043" fill="#280d0b" d="M 24.5,168.5 C 25.9063,168.973 26.573,169.973 26.5,171.5C 25.0937,171.027 24.427,170.027 24.5,168.5 Z"/></g>
<g><path style="opacity:0.016" fill="#2b0c0b" d="M 129.5,171.5 C 129.573,173.027 128.906,174.027 127.5,174.5C 127.427,172.973 128.094,171.973 129.5,171.5 Z"/></g>
<g><path style="opacity:0.157" fill="#5f3536" d="M 245.5,174.5 C 245.068,175.71 244.401,176.71 243.5,177.5C 243.285,175.821 243.952,174.821 245.5,174.5 Z"/></g>
<g><path style="opacity:0.004" fill="#2d0d0b" d="M 241.5,180.5 C 241.573,182.027 240.906,183.027 239.5,183.5C 239.427,181.973 240.094,180.973 241.5,180.5 Z"/></g>
<g><path style="opacity:0.561" fill="#5c2423" d="M 42.5,194.5 C 44.5311,195.539 45.8645,197.205 46.5,199.5C 44.457,198.421 43.1237,196.754 42.5,194.5 Z"/></g>
<g><path style="opacity:0.165" fill="#391414" d="M 42.5,199.5 C 43.9063,199.973 44.573,200.973 44.5,202.5C 43.0937,202.027 42.427,201.027 42.5,199.5 Z"/></g>
<g><path style="opacity:0.004" fill="#260c09" d="M 48.5,202.5 C 49.5,202.833 50.1667,203.5 50.5,204.5C 49.1667,204.5 48.5,203.833 48.5,202.5 Z"/></g>
<g><path style="opacity:0.19" fill="#471112" d="M 280.5,199.5 C 280.706,202.495 280.04,205.162 278.5,207.5C 278.565,204.572 279.232,201.905 280.5,199.5 Z"/></g>
<g><path style="opacity:0.373" fill="#4f1012" d="M 155.5,206.5 C 155.5,207.833 155.5,209.167 155.5,210.5C 177.5,210.5 199.5,210.5 221.5,210.5C 199.34,211.497 177.006,211.831 154.5,211.5C 154.216,209.585 154.549,207.919 155.5,206.5 Z"/></g>
<g><path style="opacity:0.012" fill="#320f0d" d="M 26.5,211.5 C 27.9063,211.973 28.573,212.973 28.5,214.5C 27.0937,214.027 26.427,213.027 26.5,211.5 Z"/></g>
<g><path style="opacity:0.004" fill="#280f0d" d="M 93.5,220.5 C 93.5,221.833 92.8333,222.5 91.5,222.5C 91.8333,221.5 92.5,220.833 93.5,220.5 Z"/></g>
<g><path style="opacity:0.004" fill="#240b07" d="M 70.5,224.5 C 71.5,224.833 72.1667,225.5 72.5,226.5C 71.1667,226.5 70.5,225.833 70.5,224.5 Z"/></g>
<g><path style="opacity:0.995" fill="#972023" d="M 46.5,239.5 C 47.1667,240.833 48.1667,241.833 49.5,242.5C 55.623,246.783 61.623,251.283 67.5,256C 55.5892,272.362 43.5892,288.528 31.5,304.5C 30.0937,304.973 29.427,305.973 29.5,307.5C 27.3328,309.83 25.6662,312.497 24.5,315.5C 23.5,315.5 22.5,315.5 21.5,315.5C 24.8869,285.793 28.5535,256.126 32.5,226.5C 37.7934,230.006 42.46,234.34 46.5,239.5 Z"/></g>
<g><path style="opacity:0.604" fill="#6c2728" d="M 79.5,232.5 C 81.1667,232.5 82.8333,232.5 84.5,232.5C 83.0839,234.851 81.4172,234.851 79.5,232.5 Z"/></g>
<g><path style="opacity:0.008" fill="#320c10" d="M 78.5,235.5 C 80.0269,235.427 81.0269,236.094 81.5,237.5C 79.9731,237.573 78.9731,236.906 78.5,235.5 Z"/></g>
<g><path style="opacity:0.008" fill="#2a0e0a" d="M 46.5,239.5 C 48.5,239.5 49.5,240.5 49.5,242.5C 48.1667,241.833 47.1667,240.833 46.5,239.5 Z"/></g>
<g><path style="opacity:0.227" fill="#4c191a" d="M 53.5,241.5 C 55.0269,241.427 56.0269,242.094 56.5,243.5C 54.9731,243.573 53.9731,242.906 53.5,241.5 Z"/></g>
<g><path style="opacity:0.384" fill="#441212" d="M 260.5,240.5 C 260.573,242.027 259.906,243.027 258.5,243.5C 258.427,241.973 259.094,240.973 260.5,240.5 Z"/></g>
<g><path style="opacity:0.2" fill="#451013" d="M 58.5,245.5 C 60.0269,245.427 61.0269,246.094 61.5,247.5C 59.9731,247.573 58.9731,246.906 58.5,245.5 Z"/></g>
<g><path style="opacity:0.027" fill="#341110" d="M 99.5,248.5 C 101.027,248.427 102.027,249.094 102.5,250.5C 100.973,250.573 99.9731,249.906 99.5,248.5 Z"/></g>
<g><path style="opacity:0.431" fill="#874241" d="M 102.5,250.5 C 105.328,251.655 107.995,252.989 110.5,254.5C 107.006,254.468 104.339,253.135 102.5,250.5 Z"/></g>
<g><path style="opacity:0.071" fill="#3a1b1c" d="M 117.5,257.5 C 119.38,257.229 120.713,257.896 121.5,259.5C 119.847,259.34 118.514,258.674 117.5,257.5 Z"/></g>
<g><path style="opacity:0.192" fill="#2e0d0b" d="M 238.5,257.5 C 238.027,258.906 237.027,259.573 235.5,259.5C 235.973,258.094 236.973,257.427 238.5,257.5 Z"/></g>
<g><path style="opacity:0.035" fill="#230e0c" d="M 79.5,260.5 C 81.0269,260.427 82.0269,261.094 82.5,262.5C 80.9731,262.573 79.9731,261.906 79.5,260.5 Z"/></g>
<g><path style="opacity:0.245" fill="#491114" d="M 213.5,267.5 C 211.162,269.04 208.495,269.706 205.5,269.5C 207.905,268.232 210.572,267.565 213.5,267.5 Z"/></g>
<g><path style="opacity:0.008" fill="#2c0e0c" d="M 242.5,272.5 C 242.027,273.906 241.027,274.573 239.5,274.5C 239.973,273.094 240.973,272.427 242.5,272.5 Z"/></g>
<g><path style="opacity:0.063" fill="#230a09" d="M 104.5,273.5 C 106.38,273.229 107.713,273.896 108.5,275.5C 106.847,275.34 105.514,274.674 104.5,273.5 Z"/></g>
<g><path style="opacity:0.059" fill="#310e0d" d="M 232.5,277.5 C 231.713,279.104 230.38,279.771 228.5,279.5C 229.514,278.326 230.847,277.66 232.5,277.5 Z"/></g>
<g><path style="opacity:0.557" fill="#5b1819" d="M 130.5,282.5 C 133.01,282.054 135.01,282.72 136.5,284.5C 134.214,284.405 132.214,283.738 130.5,282.5 Z"/></g>
<g><path style="opacity:0.065" fill="#260b09" d="M 219.5,282.5 C 217.898,284.074 215.898,284.741 213.5,284.5C 215.214,283.262 217.214,282.595 219.5,282.5 Z"/></g>
<g><path style="opacity:0.004" fill="#270e0d" d="M 31.5,304.5 C 31.573,306.027 30.9063,307.027 29.5,307.5C 29.427,305.973 30.0937,304.973 31.5,304.5 Z"/></g>
</svg>
