<?xml version="1.0" encoding="UTF-8"?>
<!DOCTYPE svg PUBLIC "-//W3C//DTD SVG 1.1//EN" "http://www.w3.org/Graphics/SVG/1.1/DTD/svg11.dtd">
<svg viewBox="0 0 222 222" width="222" height="222" xmlns="http://www.w3.org/2000/svg" clip-rule="evenodd" version="1.1">
 <g>
  <title>Layer 1</title>
  <g id="svg_1">
   <path id="svg_2" opacity="0.981" d="m137.51,-0.5c3.3333,0 6.6667,0 10,0c2.3205,0.91847 4.487,2.2518 6.5,4c2.698,4.98662 4.198,10.32 4.5,16c-2.205,15.859 -5.372,31.5257 -9.5,47c-7.1152,17.0351 -18.7819,21.3684 -35,13c-0.2779,-3.6939 -0.2779,-7.3606 0,-11c-5.6242,5.1556 -11.4575,5.3222 -17.5,0.5c-1.5905,-1.0458 -3.0905,-2.2125 -4.5,-3.5c0.3844,5.6395 0.3844,11.3062 0,17c-14.7219,6.8191 -25.0552,2.4857 -31,-13c-4.40027,-15.3976 -6.7336,-31.0643 -7,-47c0.91067,-8.079 5.41067,-12.079 13.5,-12c10.8075,2.4354 21.6408,4.7687 32.5,7c3.3668,-0.633 6.5334,-1.7997 9.5,-3.5c8.4318,-6.71492 17.7651,-11.54825 28,-14.5z" fill="#c6851a"/>
  </g>
  <g id="svg_3">
   <path id="svg_4" opacity="0.985" d="m129.51,221.5c-21,0 -42,0 -63,0c-8.60596,-1.132 -14.27263,-5.798 -17,-14c0,-28 0,-56 0,-84c1.62523,-6.265 4.12523,-12.265 7.5,-18c4.2759,-5.272 9.7759,-8.4391 16.5,-9.5c18,-0.6667 36,-0.6667 54,0c17.8033,3.1411 30.303,12.974 37.5,29.5c7.379,18.746 9.712,38.079 7,58c-3.663,16.671 -13.496,28.171 -29.5,34.5c-4.4191,1.352 -8.7524,2.519 -13,3.5zm-23,-79c16.73,-0.783 23.5634,6.883 20.5,23c-3.7924,5.982 -9.2924,8.982 -16.5,9c-3.6379,-0.682 -7.3046,-1.182 -11,-1.5c-1.0784,-0.674 -1.7451,-1.674 -2,-3c-1.5681,-8.6 -1.2348,-17.1 1,-25.5c2.8106,-0.58 5.4773,-1.246 8,-2z" fill="#c6851a"/>
  </g>
 </g>
</svg>
